Coordinates
version=1
nRows=8
nColumns=40
inDegrees=yes

Units are S.I. units (second, meters, Newtons, ...)
If the header above contains a line with 'inDegrees', this indicates whether rotational values are in degrees (yes) or radians (no).

endheader
time	pelvis_tilt	pelvis_list	pelvis_rotation	pelvis_tx	pelvis_ty	pelvis_tz	hip_flexion_r	hip_adduction_r	hip_rotation_r	knee_angle_r	knee_angle_r_beta	ankle_angle_r	subtalar_angle_r	mtp_angle_r	hip_flexion_l	hip_adduction_l	hip_rotation_l	knee_angle_l	knee_angle_l_beta	ankle_angle_l	subtalar_angle_l	mtp_angle_l	lumbar_extension	lumbar_bending	lumbar_rotation	arm_flex_r	arm_add_r	arm_rot_r	elbow_flex_r	pro_sup_r	wrist_flex_r	wrist_dev_r	arm_flex_l	arm_add_l	arm_rot_l	elbow_flex_l	pro_sup_l	wrist_flex_l	wrist_dev_l
     11.66700000	      0.08827533	      3.95863794	    -11.28283981	      0.07225829	      1.31975144	      0.01793222	     67.29033598	     -8.40417660	      2.54067620	    102.80612441	      1.79430536	      9.39849859	     -7.68781854	      0.00000000	     26.51885818	     -8.54373183	    -12.49946914	     50.65374553	      0.88407464	     -2.75700017	     -4.10353968	      0.00000000	    -60.05766574	     -0.10197989	      0.27982228	     49.06954327	      2.44890752	     -6.80042753	     49.20047847	     40.83656646	      0.00000000	      0.00000000	     52.31899412	     15.29789661	    -12.52985303	     37.07057485	      8.07033470	      0.00000000	      0.00000000
     11.68300000	      0.24857017	      4.12433394	    -10.99212296	      0.07256437	      1.31992864	      0.01780255	     67.50856914	     -8.43333748	      3.01748958	    100.49133738	      1.75390471	      9.45471540	     -7.62859883	      0.00000000	     26.42358960	     -8.33798420	    -12.05513051	     53.28335218	      0.92996993	     -1.90043952	     -4.66664221	      0.00000000	    -60.20500557	      0.03847905	      0.05884985	     49.06980891	      2.48956518	     -6.91824247	     49.26107706	     40.82959974	      0.00000000	      0.00000000	     52.40416285	     15.30868758	    -12.62735170	     36.99784660	      8.57082432	      0.00000000	      0.00000000
     11.70000000	      0.42333175	      4.31154066	    -10.61099829	      0.07282167	      1.32025718	      0.01762491	     67.24302262	     -8.55390454	      3.50778639	     97.78400231	      1.70665280	      9.39265327	     -7.47575756	      0.00000000	     26.70262538	     -8.11314365	    -11.45065123	     56.44280378	      0.98511276	     -1.07988919	     -5.38242445	      0.00000000	    -60.34975510	      0.22453289	     -0.22929181	     49.03393155	      2.47958242	     -7.03174568	     49.35925414	     40.81117837	      0.00000000	      0.00000000	     52.49626623	     15.31957925	    -12.56780528	     36.90939583	      8.54352271	      0.00000000	      0.00000000
     11.71700000	      0.62312041	      4.54368743	    -10.16973703	      0.07298450	      1.32065664	      0.01739486	     66.45990603	     -8.77489102	      4.06964022	     94.71185083	      1.65303364	      9.37177872	     -7.18967398	      0.00000000	     27.34769801	     -7.82708256	    -10.68596539	     60.14891766	      1.04979665	     -0.28775703	     -6.23546557	      0.00000000	    -60.47770387	      0.44322419	     -0.61281109	     48.98650172	      2.46716619	     -7.15949684	     49.44901361	     40.80100013	      0.00000000	      0.00000000	     52.58281822	     15.32810926	    -12.49661364	     36.78224739	      8.60457649	      0.00000000	      0.00000000
     11.73300000	      0.87561823	      4.85459453	     -9.63487724	      0.07312629	      1.32119878	      0.01706543	     65.17861935	     -9.13466320	      4.70209037	     91.25091248	      1.59262887	      9.28149934	     -6.80398142	      0.00000000	     28.29138526	     -7.43315837	     -9.83310760	     64.29840240	      1.12221883	      0.34490258	     -7.14183029	      0.00000000	    -60.62947413	      0.67866272	     -1.11201469	     48.91121773	      2.42631861	     -7.31461771	     49.57372147	     40.79343107	      0.00000000	      0.00000000	     52.67275772	     15.35866300	    -12.36956013	     36.64124195	      8.65066365	      0.00000000	      0.00000000
     11.75000000	      1.16587061	      5.23710342	     -8.90113427	      0.07329697	      1.32172128	      0.01636928	     63.49523299	     -9.80332541	      5.14163528	     87.57477198	      1.52846811	      9.05487778	     -6.56375154	      0.00000000	     29.49759339	     -6.92983019	     -8.92217040	     68.68005612	      1.19869311	      0.75795968	     -7.93544519	      0.00000000	    -60.78756648	      0.99046024	     -1.75016884	     48.79284889	      2.35083283	     -7.53652171	     49.69366024	     40.78705772	      0.00000000	      0.00000000	     52.75627145	     15.43563448	    -12.23660868	     36.49164248	      8.68345774	      0.00000000	      0.00000000
     11.76700000	      1.51113527	      5.66241107	     -8.23243701	      0.07335376	      1.32242643	      0.01578819	     61.37214734	    -10.41629356	      5.49679321	     83.51706469	      1.45764776	      8.53279670	     -6.57786547	      0.00000000	     30.85659774	     -6.38613772	     -7.93110522	     73.17353324	      1.27711908	      1.16856053	     -8.30685823	      0.00000000	    -61.01106100	      1.15390768	     -2.41386159	     48.63109616	      2.34542178	     -7.83609285	     49.83774180	     40.75611413	      0.00000000	      0.00000000	     52.88045189	     15.50267414	    -12.09922710	     36.33202770	      8.98834997	      0.00000000	      0.00000000
     11.78300000	      1.84196944	      6.05992300	     -7.31812320	      0.07340522	      1.32312130	      0.01483418	     58.83509802	    -11.26037452	      5.53985617	     79.12772674	      1.38103936	      7.63213944	     -6.63251344	      0.00000000	     32.49930124	     -5.81430225	     -6.82368627	     77.85595054	      1.35884268	      1.54529483	     -8.58288407	      0.00000000	    -61.21417995	      1.48748894	     -3.12966107	     48.46219502	      2.31934555	     -8.34135150	     49.93141062	     40.68573357	      0.00000000	      0.00000000	     53.02398556	     15.62761557	    -11.97081382	     36.08589629	      9.36436613	      0.00000000	      0.00000000
